<svg width="32" height="32" viewBox="0 0 32 32" fill="none" xmlns="http://www.w3.org/2000/svg">
<path opacity="0.5" d="M14.5246 29.3327H17.4741C22.0695 29.3327 24.3672 29.3327 25.934 27.9836C27.5007 26.6345 27.8257 24.3762 28.4756 19.8597L28.4756 19.8597L28.8473 17.2765C29.3532 13.7604 29.6061 12.0024 28.8855 10.4993C28.1649 8.99615 26.6311 8.08247 23.5635 6.25509L21.717 5.15517C18.9313 3.49574 17.5384 2.66602 15.9993 2.66602C14.4603 2.66602 13.0674 3.49574 10.2817 5.15518L8.43523 6.2551L8.43522 6.2551C5.3676 8.08247 3.83378 8.99615 3.11317 10.4993C2.39256 12.0024 2.64552 13.7604 3.15145 17.2765L3.52313 19.8596C4.17302 24.3762 4.49797 26.6345 6.06472 27.9836C7.63147 29.3327 9.92918 29.3327 14.5246 29.3327Z" fill="#BABABA"/>
<path d="M12.5955 20.5307C12.1519 20.2018 11.5256 20.2949 11.1967 20.7386C10.8678 21.1823 10.9609 21.8085 11.4046 22.1374C12.7011 23.0985 14.2868 23.6674 16.0001 23.6674C17.7134 23.6674 19.299 23.0985 20.5955 22.1374C21.0392 21.8085 21.1323 21.1823 20.8034 20.7386C20.4746 20.2949 19.8483 20.2018 19.4046 20.5307C18.4335 21.2505 17.2613 21.6674 16.0001 21.6674C14.7389 21.6674 13.5667 21.2505 12.5955 20.5307Z" fill="#757575"/>
</svg>
