<svg width="16" height="16" viewBox="0 0 16 16" fill="none" xmlns="http://www.w3.org/2000/svg">
<path opacity="0.5" d="M8 14.666C11.3137 14.666 14 11.9797 14 8.66602C14 5.35231 11.3137 2.66602 8 2.66602C4.68629 2.66602 2 5.35231 2 8.66602C2 11.9797 4.68629 14.666 8 14.666Z" fill="#878787"/>
<path d="M8 6.16602C8.27614 6.16602 8.5 6.38987 8.5 6.66602V8.16603H10C10.2761 8.16603 10.5 8.38989 10.5 8.66603C10.5 8.94217 10.2761 9.16603 10 9.16603H8.5V10.666C8.5 10.9422 8.27614 11.166 8 11.166C7.72386 11.166 7.5 10.9422 7.5 10.666V9.16603H6C5.72386 9.16603 5.5 8.94217 5.5 8.66603C5.5 8.38989 5.72386 8.16603 6 8.16603H7.5V6.66602C7.5 6.38987 7.72386 6.16602 8 6.16602Z" fill="#878787"/>
<path fill-rule="evenodd" clip-rule="evenodd" d="M5.49366 1.56056C5.63606 1.78626 5.5668 2.08358 5.33896 2.22465L2.74438 3.83106C2.51654 3.97213 2.21641 3.90351 2.07401 3.67781C1.93161 3.45211 2.00088 3.15478 2.22871 3.01372L4.82329 1.4073C5.05113 1.26624 5.35127 1.33485 5.49366 1.56056Z" fill="#878787"/>
<path fill-rule="evenodd" clip-rule="evenodd" d="M10.5064 1.56055C10.6488 1.33485 10.9489 1.26624 11.1767 1.4073L13.7713 3.01372C13.9991 3.15478 14.0684 3.45211 13.926 3.67781C13.7836 3.90352 13.4835 3.97213 13.2556 3.83106L10.6611 2.22465C10.4332 2.08358 10.364 1.78626 10.5064 1.56055Z" fill="#878787"/>
</svg>
