<svg width="16" height="16" viewBox="0 0 16 16" fill="none" xmlns="http://www.w3.org/2000/svg">
<path opacity="0.5" d="M2.3103 13.691C3.28661 14.6673 4.85795 14.6673 8.00065 14.6673C11.1433 14.6673 12.7147 14.6673 13.691 13.691C14.6673 12.7147 14.6673 11.1433 14.6673 8.00065C14.6673 4.85795 14.6673 3.28661 13.691 2.3103C12.7147 1.33398 11.1433 1.33398 8.00065 1.33398C4.85795 1.33398 3.28661 1.33398 2.3103 2.3103C1.33398 3.28661 1.33398 4.85795 1.33398 8.00065C1.33398 11.1433 1.33398 12.7147 2.3103 13.691Z" fill="#878787"/>
<path fill-rule="evenodd" clip-rule="evenodd" d="M8 4.83398C8.27614 4.83398 8.5 5.05784 8.5 5.33398V7.79354L10.0202 9.31376C10.2155 9.50903 10.2155 9.82561 10.0202 10.0209C9.82496 10.2161 9.50838 10.2161 9.31311 10.0209L7.64645 8.3542C7.55268 8.26044 7.5 8.13326 7.5 8.00065V5.33398C7.5 5.05784 7.72386 4.83398 8 4.83398Z" fill="#878787"/>
</svg>
