<svg width="32" height="32" viewBox="0 0 32 32" fill="none" xmlns="http://www.w3.org/2000/svg">
<path d="M6.83816 7.05926C6.66602 7.30187 6.66602 7.64548 6.66602 8.33268C6.66602 9.01989 6.66602 9.3635 6.83816 9.60611C6.8989 9.69172 6.97365 9.76647 7.05926 9.82721C7.30187 9.99935 7.64548 9.99935 8.33268 9.99935C9.01989 9.99935 9.3635 9.99935 9.60611 9.82721C9.69172 9.76647 9.76647 9.69172 9.82721 9.60611C9.99935 9.3635 9.99935 9.01989 9.99935 8.33268C9.99935 7.64548 9.99935 7.30187 9.82721 7.05926C9.76647 6.97365 9.69172 6.8989 9.60611 6.83816C9.3635 6.66602 9.01989 6.66602 8.33268 6.66602C7.64548 6.66602 7.30187 6.66602 7.05926 6.83816C6.97365 6.8989 6.8989 6.97365 6.83816 7.05926Z" fill="white"/>
<path fill-rule="evenodd" clip-rule="evenodd" d="M11.6049 1.71963C12.1947 1.77571 12.7444 1.89739 13.2485 2.20634C13.7419 2.50867 14.1567 2.92349 14.459 3.41686C14.768 3.92101 14.8897 4.47067 14.9457 5.06048C14.9994 5.62467 14.9994 6.31929 14.9994 7.15164L14.9994 8.73534C14.9994 9.9333 14.9994 10.9323 14.8928 11.7253C14.7803 12.5624 14.5327 13.3181 13.9254 13.9254C13.3181 14.5327 12.5624 14.7803 11.7253 14.8928C10.9323 14.9994 9.93334 14.9994 8.73539 14.9994L7.15175 14.9994C6.3194 14.9994 5.62467 14.9994 5.06048 14.9457C4.47067 14.8897 3.92101 14.768 3.41686 14.459C2.92349 14.1567 2.50867 13.7419 2.20634 13.2485C1.89739 12.7444 1.77571 12.1947 1.71963 11.6049C1.66598 11.0407 1.666 10.346 1.66602 9.51363V9.41582C1.666 8.14907 1.66599 7.12744 1.74419 6.30504C1.82483 5.45692 1.99563 4.71799 2.40282 4.05352C2.8151 3.38075 3.38075 2.8151 4.05352 2.40282C4.71799 1.99563 5.45692 1.82483 6.30504 1.74419C7.12744 1.66599 8.14904 1.666 9.41579 1.66602H9.5136C10.346 1.666 11.0407 1.66598 11.6049 1.71963ZM11.4156 3.71065C10.9573 3.66707 10.3583 3.66602 9.46602 3.66602C8.13728 3.66602 7.21095 3.66707 6.49435 3.73521C5.79263 3.80193 5.39593 3.92585 5.09852 4.1081C4.69486 4.35546 4.35546 4.69486 4.1081 5.09852C3.92585 5.39593 3.80193 5.79263 3.73521 6.49435C3.66707 7.21095 3.66602 8.13728 3.66602 9.46602C3.66602 10.3583 3.66707 10.9573 3.71065 11.4156C3.75281 11.859 3.82761 12.0664 3.91162 12.2035C4.04904 12.4278 4.23759 12.6163 4.46185 12.7538C4.59895 12.8378 4.80637 12.9126 5.24979 12.9547C5.70809 12.9983 6.30707 12.9994 7.19935 12.9994H8.66602C9.95137 12.9994 10.8148 12.9972 11.4588 12.9106C12.0741 12.8279 12.3374 12.685 12.5112 12.5112C12.685 12.3374 12.8279 12.0741 12.9106 11.4588C12.9972 10.8148 12.9994 9.95137 12.9994 8.66602V7.19935C12.9994 6.30707 12.9983 5.70809 12.9547 5.24979C12.9126 4.80637 12.8378 4.59895 12.7538 4.46185C12.6163 4.23759 12.4278 4.04904 12.2035 3.91162C12.0664 3.82761 11.859 3.75281 11.4156 3.71065Z" fill="white"/>
<path d="M22.1715 7.05926C21.9994 7.30187 21.9994 7.64548 21.9994 8.33268C21.9994 9.01989 21.9994 9.3635 22.1715 9.60611C22.2322 9.69172 22.307 9.76647 22.3926 9.82721C22.6352 9.99935 22.9788 9.99935 23.666 9.99935C24.3532 9.99935 24.6968 9.99935 24.9394 9.82721C25.0251 9.76647 25.0998 9.69172 25.1605 9.60611C25.3327 9.3635 25.3327 9.01989 25.3327 8.33268C25.3327 7.64548 25.3327 7.30187 25.1605 7.05926C25.0998 6.97365 25.0251 6.8989 24.9394 6.83816C24.6968 6.66602 24.3532 6.66602 23.666 6.66602C22.9788 6.66602 22.6352 6.66602 22.3926 6.83816C22.307 6.8989 22.2322 6.97365 22.1715 7.05926Z" fill="white"/>
<path fill-rule="evenodd" clip-rule="evenodd" d="M22.4851 1.66602H22.5829C23.8496 1.666 24.8713 1.66599 25.6937 1.74419C26.5418 1.82483 27.2807 1.99563 27.9452 2.40282C28.618 2.8151 29.1836 3.38075 29.5959 4.05352C30.0031 4.71799 30.1739 5.45692 30.2545 6.30504C30.3327 7.12744 30.3327 8.14904 30.3327 9.4158V9.51362C30.3327 10.346 30.3327 11.0407 30.2791 11.6049C30.223 12.1947 30.1013 12.7444 29.7924 13.2485C29.49 13.7419 29.0752 14.1567 28.5818 14.459C28.0777 14.768 27.528 14.8897 26.9382 14.9457C26.3741 14.9994 25.6795 14.9994 24.8472 14.9994L23.2634 14.9994C22.0654 14.9994 21.0664 14.9994 20.2734 14.8928C19.4363 14.7803 18.6806 14.5327 18.0733 13.9254C17.466 13.3181 17.2184 12.5624 17.1059 11.7253C16.9993 10.9323 16.9993 9.93332 16.9994 8.73535V7.15177C16.9993 6.31936 16.9993 5.6247 17.053 5.06048C17.109 4.47067 17.2307 3.92101 17.5397 3.41686C17.842 2.92349 18.2568 2.50867 18.7502 2.20634C19.2543 1.89739 19.804 1.77571 20.3938 1.71963C20.958 1.66598 21.6527 1.666 22.4851 1.66602ZM20.5831 3.71065C20.1397 3.75281 19.9323 3.82761 19.7952 3.91162C19.5709 4.04904 19.3824 4.23759 19.245 4.46185C19.1609 4.59895 19.0861 4.80637 19.044 5.24979C19.0004 5.70809 18.9994 6.30707 18.9994 7.19935V8.66602C18.9994 9.95137 19.0015 10.8148 19.0881 11.4588C19.1708 12.0741 19.3138 12.3374 19.4875 12.5112C19.6613 12.685 19.9246 12.8279 20.5399 12.9106C21.1839 12.9972 22.0473 12.9994 23.3327 12.9994H24.7994C25.6916 12.9994 26.2906 12.9983 26.7489 12.9547C27.1923 12.9126 27.3998 12.8378 27.5368 12.7538C27.7611 12.6163 27.9497 12.4278 28.0871 12.2035C28.1711 12.0664 28.2459 11.859 28.2881 11.4156C28.3316 10.9573 28.3327 10.3583 28.3327 9.46602C28.3327 8.13728 28.3316 7.21095 28.2635 6.49435C28.1968 5.79263 28.0729 5.39593 27.8906 5.09852C27.6432 4.69486 27.3038 4.35546 26.9002 4.1081C26.6028 3.92585 26.2061 3.80193 25.5044 3.73521C24.7877 3.66707 23.8614 3.66602 22.5327 3.66602C21.6404 3.66602 21.0414 3.66707 20.5831 3.71065Z" fill="white"/>
<path d="M6.66602 23.666C6.66602 22.9788 6.66602 22.6352 6.83816 22.3926C6.8989 22.307 6.97365 22.2322 7.05926 22.1715C7.30187 21.9994 7.64548 21.9994 8.33268 21.9994C9.01989 21.9994 9.3635 21.9994 9.60611 22.1715C9.69172 22.2322 9.76647 22.307 9.82721 22.3926C9.99935 22.6352 9.99935 22.9788 9.99935 23.666C9.99935 24.3532 9.99935 24.6968 9.82721 24.9394C9.76647 25.0251 9.69172 25.0998 9.60611 25.1605C9.3635 25.3327 9.01989 25.3327 8.33268 25.3327C7.64548 25.3327 7.30187 25.3327 7.05926 25.1605C6.97365 25.0998 6.8989 25.0251 6.83816 24.9394C6.66602 24.6968 6.66602 24.3532 6.66602 23.666Z" fill="white"/>
<path fill-rule="evenodd" clip-rule="evenodd" d="M11.7253 17.1059C12.5624 17.2184 13.3181 17.466 13.9254 18.0733C14.5327 18.6806 14.7803 19.4363 14.8928 20.2734C14.9994 21.0664 14.9994 22.0654 14.9994 23.2633L14.9994 24.847C14.9994 25.6792 14.9994 26.3741 14.9457 26.9382C14.8897 27.528 14.768 28.0777 14.459 28.5818C14.1567 29.0752 13.7419 29.49 13.2485 29.7924C12.7444 30.1013 12.1947 30.223 11.6049 30.2791C11.0407 30.3327 10.346 30.3327 9.51362 30.3327H9.4158C8.14904 30.3327 7.12744 30.3327 6.30504 30.2545C5.45692 30.1739 4.71799 30.0031 4.05352 29.5959C3.38075 29.1836 2.8151 28.618 2.40282 27.9452C1.99563 27.2807 1.82483 26.5418 1.74419 25.6937C1.66599 24.8713 1.666 23.8497 1.66602 22.5829V22.4851C1.666 21.6527 1.66598 20.958 1.71963 20.3938C1.77571 19.804 1.89739 19.2543 2.20634 18.7502C2.50867 18.2568 2.92349 17.842 3.41686 17.5397C3.92101 17.2307 4.47067 17.109 5.06048 17.053C5.6247 16.9993 6.31936 16.9993 7.15177 16.9994H8.73535C9.93332 16.9993 10.9323 16.9993 11.7253 17.1059ZM11.4588 19.0881C10.8148 19.0015 9.95137 18.9994 8.66602 18.9994H7.19935C6.30707 18.9994 5.70809 19.0004 5.24979 19.044C4.80637 19.0861 4.59895 19.1609 4.46185 19.245C4.23759 19.3824 4.04904 19.5709 3.91162 19.7952C3.82761 19.9323 3.75281 20.1397 3.71065 20.5831C3.66707 21.0414 3.66602 21.6404 3.66602 22.5327C3.66602 23.8614 3.66707 24.7877 3.73521 25.5044C3.80193 26.2061 3.92585 26.6028 4.1081 26.9002C4.35546 27.3038 4.69486 27.6432 5.09852 27.8906C5.39593 28.0729 5.79263 28.1968 6.49435 28.2635C7.21095 28.3316 8.13728 28.3327 9.46602 28.3327C10.3583 28.3327 10.9573 28.3316 11.4156 28.2881C11.859 28.2459 12.0664 28.1711 12.2035 28.0871C12.4278 27.9497 12.6163 27.7611 12.7538 27.5368C12.8378 27.3998 12.9126 27.1923 12.9547 26.7489C12.9983 26.2906 12.9994 25.6916 12.9994 24.7994V23.3327C12.9994 22.0473 12.9972 21.1839 12.9106 20.5399C12.8279 19.9246 12.685 19.6613 12.5112 19.4875C12.3374 19.3138 12.0741 19.1708 11.4588 19.0881Z" fill="white"/>
<path d="M22.6149 16.9994L25.3327 16.9994V18.9994H22.666C21.7089 18.9994 21.0663 19.0006 20.5765 19.0504C20.1033 19.0985 19.8847 19.1836 19.7401 19.2802C19.5581 19.4018 19.4018 19.5581 19.2802 19.7401C19.1836 19.8847 19.0985 20.1033 19.0504 20.5765C19.0006 21.0663 18.9994 21.7089 18.9994 22.666H16.9994L16.9994 22.6149C16.9993 21.7221 16.9993 20.9771 17.0607 20.374C17.1249 19.7427 17.2645 19.1569 17.6173 18.6289C17.8848 18.2286 18.2286 17.8848 18.6289 17.6173C19.1569 17.2645 19.7427 17.1249 20.374 17.0607C20.9771 16.9993 21.7221 16.9993 22.6149 16.9994Z" fill="white"/>
<path d="M16.9994 29.3327V25.3327H18.9994V29.3327C18.9994 29.885 18.5516 30.3327 17.9994 30.3327C17.4471 30.3327 16.9994 29.885 16.9994 29.3327Z" fill="white"/>
<path d="M30.3327 17.9994C30.3327 17.4471 29.885 16.9994 29.3327 16.9994C28.7804 16.9994 28.3327 17.4471 28.3327 17.9994V22.666H30.3327V17.9994Z" fill="white"/>
<path d="M28.3327 25.3327C28.3327 25.9676 28.3321 26.3937 28.3096 26.7237C28.2877 27.0447 28.2484 27.201 28.2058 27.3038C28.0367 27.7122 27.7122 28.0367 27.3038 28.2058C27.201 28.2484 27.0447 28.2877 26.7237 28.3096C26.3937 28.3321 25.9676 28.3327 25.3327 28.3327H22.666V30.3327H25.3664C25.9589 30.3327 26.4537 30.3327 26.8598 30.305C27.2826 30.2761 27.682 30.214 28.0692 30.0536C28.9676 29.6814 29.6814 28.9676 30.0536 28.0692C30.214 27.682 30.2761 27.2826 30.305 26.8598C30.3327 26.4537 30.3327 25.959 30.3327 25.3665V25.3327H28.3327Z" fill="white"/>
<path d="M21.5574 21.9253C21.3327 22.2616 21.3327 22.7297 21.3327 23.666C21.3327 24.6023 21.3327 25.0705 21.5574 25.4068C21.6547 25.5524 21.7797 25.6774 21.9253 25.7746C22.2616 25.9993 22.7297 25.9993 23.666 25.9993C24.6023 25.9993 25.0705 25.9993 25.4068 25.7746C25.5524 25.6774 25.6774 25.5524 25.7746 25.4068C25.9993 25.0705 25.9993 24.6023 25.9993 23.666C25.9993 22.7297 25.9993 22.2616 25.7746 21.9253C25.6774 21.7797 25.5524 21.6547 25.4068 21.5574C25.0705 21.3327 24.6023 21.3327 23.666 21.3327C22.7297 21.3327 22.2616 21.3327 21.9253 21.5574C21.7797 21.6547 21.6547 21.7797 21.5574 21.9253Z" fill="white"/>
</svg>
