<svg width="32" height="32" viewBox="0 0 32 32" fill="none" xmlns="http://www.w3.org/2000/svg">
<path opacity="0.5" d="M29.3327 15.9993C29.3327 23.3631 23.3631 29.3327 15.9993 29.3327C8.63555 29.3327 2.66602 23.3631 2.66602 15.9993C2.66602 8.63555 8.63555 2.66602 15.9993 2.66602C23.3631 2.66602 29.3327 8.63555 29.3327 15.9993Z" fill="#93CAA1"/>
<path d="M22.4086 25.3483C20.5857 26.6005 18.3781 27.3333 15.9994 27.3333C13.6206 27.3333 11.413 26.6005 9.59002 25.3482C8.78488 24.7951 8.4408 23.7415 8.90893 22.8842C9.87936 21.107 11.879 20 15.9993 20C20.1197 20 22.1193 21.107 23.0898 22.8843C23.5579 23.7416 23.2138 24.7952 22.4086 25.3483Z" fill="#269544"/>
<path d="M15.9994 16C18.2085 16 19.9994 14.2091 19.9994 12C19.9994 9.79086 18.2085 8 15.9994 8C13.7903 8 11.9994 9.79086 11.9994 12C11.9994 14.2091 13.7903 16 15.9994 16Z" fill="#269544"/>
</svg>
